<?xml version="1.0" standalone="no"?><!-- Generator: Gravit.io --><svg xmlns="http://www.w3.org/2000/svg" xmlns:xlink="http://www.w3.org/1999/xlink" style="isolation:isolate" viewBox="0 0 512 512" width="512" height="512"><g id="null"><path d=" M 158.065 187.708 C 158.065 132.893 202.567 88.391 257.382 88.391 C 312.196 88.391 356.699 132.893 356.699 187.708 C 356.699 242.522 312.196 287.025 257.382 287.025 C 202.567 287.025 158.065 242.522 158.065 187.708 Z " fill="none" vector-effect="non-scaling-stroke" stroke-width="6" stroke="rgb(0,188,212)" stroke-linejoin="miter" stroke-linecap="butt" stroke-miterlimit="10"/><path d=" M 315.317 295.301 C 315.317 327.298 289.378 353.236 257.382 353.236 C 225.385 353.236 199.447 327.298 199.447 295.301 M 108.406 436 C 108.406 353.716 175.098 287.025 257.382 287.025 C 339.666 287.025 406.357 353.716 406.357 436" fill="none" vector-effect="non-scaling-stroke" stroke-width="6" stroke="rgb(0,188,212)" stroke-linejoin="miter" stroke-linecap="butt" stroke-miterlimit="10"/></g><g id="null"/><g id="null"><g id="null"><rect x="114.001" y="14.208" width="2.445" height="23.086" transform="matrix(0.987,0.161,-0.161,0.987,5.645,-18.206)" fill="rgb(249,209,81)"/><g id="null"><path d=" M 112.023 128.052 L 133.242 116.255 C 135.47 115.017 138.285 115.82 139.524 118.048 L 139.943 118.802 C 141.181 121.03 140.378 123.845 138.15 125.084 L 116.931 136.88 C 114.702 138.118 111.888 137.315 110.649 135.087 L 110.23 134.333 C 108.991 132.105 109.795 129.29 112.023 128.052 Z " fill="rgb(255,194,0)"/><path d=" M 124.833 136.164 L 133.371 131.418 C 135.112 130.45 137.311 131.077 138.279 132.819 L 139.456 134.936 C 140.424 136.677 139.797 138.876 138.055 139.844 L 129.518 144.591 C 127.777 145.559 125.577 144.931 124.609 143.19 L 123.432 141.072 C 122.464 139.331 123.092 137.132 124.833 136.164 Z " fill="rgb(255,194,0)"/><path d=" M 100.402 121.379 C 102.287 125.246 107.275 127.069 108.609 125.747 L 132.284 112.586 C 134.871 110.911 135.367 108.014 133.754 103.889 C 127.638 94.099 135.218 77.782 127.187 61.839 C 119.156 45.896 98.796 39.305 81.786 48.206 C 64.777 57.107 59.349 77.639 68.153 93.606 C 76.957 109.573 88.828 107.37 100.402 121.379 Z  M 105.305 111.299 C 107.871 114.057 108.14 114.938 111.95 112.858 L 120.377 108.174 C 122.101 107.426 123.29 104.985 122.382 102.331 C 118.988 93.987 124.092 78.127 118.359 66.746 C 112.626 55.366 98.505 50.348 86.363 56.701 C 74.222 63.055 71.636 77.319 77.205 89.099 C 82.773 100.88 96.339 101.686 105.305 111.299 Z " fill-rule="evenodd" fill="rgb(255,194,0)"/><rect x="69.916" y="21.239" width="2.886" height="23.086" transform="matrix(0.874,-0.486,0.486,0.874,-6.939,38.802)" fill="rgb(249,209,81)"/><rect x="143.804" y="36.124" width="2.886" height="23.086" transform="matrix(0.486,0.874,-0.874,0.486,116.336,-102.443)" fill="rgb(249,209,81)"/><rect x="43.698" y="91.775" width="2.886" height="23.086" transform="matrix(0.486,0.874,-0.874,0.486,113.51,13.663)" fill="rgb(249,209,81)"/><rect x="42.447" y="55.487" width="2.445" height="23.086" transform="matrix(0.384,-0.923,0.923,0.384,-34.995,81.588)" fill="rgb(249,209,81)"/></g></g></g></svg>