<?xml version="1.0" standalone="no"?><!-- Generator: Gravit.io --><svg xmlns="http://www.w3.org/2000/svg" xmlns:xlink="http://www.w3.org/1999/xlink" style="isolation:isolate" viewBox="0 0 256 256" width="256" height="256"><path d=" M 160.751 200.728 C 159.472 200.728 158.252 200.205 157.38 199.159 C 155.882 197.305 156.141 194.594 157.961 193.057 C 163.191 188.815 167.492 183.12 170.513 176.611 C 171.501 174.461 174.116 173.473 176.266 174.519 C 178.417 175.507 179.404 178.122 178.358 180.272 C 174.814 187.943 169.642 194.684 163.424 199.74 C 162.668 200.379 161.68 200.728 160.751 200.728 L 160.751 200.728 Z  M 179.288 165.861 C 179.114 165.861 178.94 165.861 178.765 165.803 C 176.383 165.512 174.697 163.362 174.988 160.979 C 175.278 158.771 175.395 156.563 175.395 154.297 C 175.395 151.89 177.346 149.938 179.753 149.938 C 182.16 149.938 184.111 151.89 184.111 154.297 C 184.111 156.912 183.937 159.468 183.647 162.025 C 183.298 164.292 181.438 165.861 179.288 165.861 Z  M 220.082 185.154 L 198.291 168.999 C 199.162 164.292 199.627 159.352 199.627 154.355 C 199.627 137.909 194.688 122.742 186.436 110.539 L 207.007 95.313 C 208.111 94.5 208.751 93.221 208.751 91.827 L 208.751 62.655 C 208.751 60.248 206.799 58.297 204.392 58.297 C 201.985 58.297 200.034 60.248 200.034 62.655 L 200.034 89.619 L 181.09 103.623 C 180.044 102.403 178.94 101.241 177.835 100.137 C 177.777 100.02 177.661 99.904 177.603 99.846 C 177.429 99.672 177.254 99.556 177.08 99.439 C 174.639 97.115 172.024 94.965 169.293 92.989 C 169.351 92.757 169.351 92.524 169.351 92.292 C 169.351 81.192 163.947 71.313 155.637 65.096 L 171.559 35.284 C 172.663 33.192 171.908 30.577 169.758 29.415 C 167.666 28.253 165.051 29.066 163.889 31.217 L 148.082 60.853 C 144.131 59.226 139.831 58.355 135.298 58.355 C 130.765 58.355 126.465 59.284 122.513 60.853 L 106.707 31.217 C 105.603 29.125 102.93 28.311 100.838 29.415 C 98.746 30.519 97.932 33.134 99.036 35.284 L 114.959 65.096 C 106.649 71.313 101.245 81.134 101.245 92.292 C 101.245 92.524 101.303 92.757 101.303 92.989 C 96.955 96.044 92.994 99.615 89.506 103.623 L 70.736 89.619 L 70.736 62.655 C 70.736 60.248 68.785 58.297 66.378 58.297 C 63.971 58.297 62.019 60.248 62.019 62.655 L 62.019 91.827 C 62.019 93.221 62.659 94.5 63.763 95.313 L 84.334 110.539 C 76.082 122.684 71.143 137.909 71.143 154.355 C 71.143 159.352 71.608 164.292 72.479 168.999 L 50.688 185.154 C 49.584 185.967 48.944 187.246 48.944 188.64 L 48.944 218.335 C 48.944 220.742 50.896 222.694 53.303 222.694 C 55.71 222.694 57.661 220.742 57.661 218.335 L 57.661 190.849 L 74.804 178.122 C 83.579 206.306 107.404 226.645 135.414 226.645 C 163.424 226.645 187.308 206.364 196.024 178.122 L 213.167 190.849 L 213.167 218.335 C 213.167 220.742 215.118 222.694 217.525 222.694 C 219.933 222.694 221.884 220.742 221.884 218.335 L 221.884 188.64 C 221.826 187.246 221.186 185.967 220.082 185.154 Z  M 135.356 115.071 C 123.501 115.071 112.286 110.829 102.814 102.926 C 111.995 95.313 123.211 90.781 135.356 90.781 C 147.501 90.781 158.775 95.313 167.956 102.926 C 158.542 110.771 147.094 115.071 135.356 115.071 Z  M 135.356 67.013 C 147.734 67.013 158.078 75.962 160.228 87.759 C 152.465 84.037 143.964 82.111 135.356 82.122 C 126.523 82.122 118.155 84.156 110.484 87.759 C 112.692 75.962 122.978 67.013 135.356 67.013 Z  M 135.356 217.929 C 104.731 217.929 79.801 189.396 79.801 154.355 C 79.801 136.573 86.194 120.476 96.538 108.97 C 106.533 117.512 118.504 122.568 131.056 123.556 L 131.056 173.473 C 131.056 175.88 133.007 177.832 135.414 177.832 C 137.821 177.832 139.772 175.88 139.772 173.473 L 139.772 123.498 C 152.324 122.568 164.295 117.512 174.291 108.97 C 184.576 120.534 190.969 136.631 190.969 154.355 C 190.91 189.396 165.981 217.929 135.356 217.929 L 135.356 217.929 Z " fill="rgb(255,194,0)"/></svg>