<?xml version="1.0" standalone="no"?><!-- Generator: Gravit.io --><svg xmlns="http://www.w3.org/2000/svg" xmlns:xlink="http://www.w3.org/1999/xlink" style="isolation:isolate" viewBox="0 0 64 64" width="64" height="64"><path d=" M 53.253 14.442 C 48.161 10.348 40.108 9.655 39.766 9.628 C 39.228 9.583 38.72 9.885 38.499 10.377 C 38.483 10.41 38.307 10.812 38.111 11.443 C 41.478 12.01 45.613 13.155 49.357 15.478 C 49.957 15.85 50.142 16.639 49.769 17.24 C 49.397 17.84 48.609 18.025 48.008 17.652 C 41.575 13.661 33.538 13.46 31.991 13.46 C 30.446 13.46 22.406 13.661 15.976 17.652 C 15.588 17.898 15.097 17.917 14.691 17.701 C 14.284 17.486 14.026 17.068 14.013 16.608 C 13.999 16.15 14.234 15.717 14.627 15.48 C 18.37 13.158 22.505 12.011 25.874 11.445 C 25.762 11.082 25.633 10.727 25.486 10.379 C 25.267 9.882 24.757 9.581 24.216 9.629 C 23.875 9.655 15.823 10.348 10.662 14.499 C 7.965 16.99 2.577 31.559 2.577 44.152 C 2.577 44.376 2.635 44.593 2.745 44.786 C 6.464 51.319 16.611 53.031 18.922 53.104 C 19.344 53.117 19.748 52.921 19.996 52.58 L 22.336 49.366 C 16.028 47.733 12.804 44.967 12.619 44.802 C 12.089 44.335 12.039 43.527 12.506 42.997 C 12.973 42.467 13.781 42.416 14.311 42.884 C 14.389 42.954 20.322 47.989 31.991 47.989 C 43.682 47.989 49.617 42.934 49.676 42.882 C 50.207 42.436 50.999 42.495 51.459 43.016 C 51.918 43.538 51.877 44.331 51.365 44.802 C 51.178 44.967 47.956 47.733 41.647 49.366 L 43.986 52.58 C 44.227 52.91 44.613 53.105 45.021 53.105 L 45.06 53.104 C 47.374 53.031 57.518 51.319 61.236 44.786 C 61.347 44.593 61.405 44.375 61.405 44.152 C 61.405 31.559 56.017 16.99 53.253 14.442 Z  M 23.679 39.037 C 21.207 39.037 19.203 36.747 19.203 33.922 C 19.203 31.096 21.207 28.806 23.679 28.806 C 26.151 28.806 28.154 31.096 28.154 33.922 C 28.154 36.747 26.151 39.037 23.679 39.037 Z  M 40.304 39.037 C 37.832 39.037 35.828 36.747 35.828 33.922 C 35.828 31.096 37.832 28.806 40.304 28.806 C 42.776 28.806 44.78 31.096 44.78 33.922 C 44.78 36.747 42.776 39.037 40.304 39.037 Z " fill="rgb(114,137,218)"/></svg>