<?xml version="1.0" standalone="no"?><!-- Generator: Gravit.io --><svg xmlns="http://www.w3.org/2000/svg" xmlns:xlink="http://www.w3.org/1999/xlink" style="isolation:isolate" viewBox="0 0 64 64" width="64" height="64"><path d=" M 57.338 49.372 C 57.338 53.245 54.198 56.384 50.326 56.384 L 13.864 56.384 C 9.992 56.384 6.853 53.245 6.853 49.372 L 6.853 12.911 C 6.853 9.038 9.992 5.899 13.864 5.899 L 50.326 5.899 C 54.198 5.899 57.338 9.038 57.338 12.911 L 57.338 49.372 Z " fill="rgb(63,81,181)"/><path d=" M 46.635 32.544 L 41.912 32.544 L 41.912 50.775 L 34.9 50.775 L 34.9 32.544 L 30.693 32.544 L 30.693 26.935 L 34.9 26.935 L 34.9 23.554 C 34.903 18.635 36.946 15.715 42.742 15.715 L 47.522 15.715 L 47.522 21.325 L 44.314 21.325 C 42.058 21.325 41.912 22.166 41.912 23.741 L 41.912 26.935 L 47.522 26.935 L 46.635 32.544 Z " fill="rgb(255,255,255)"/></svg>