<?xml version="1.0" standalone="no"?><!-- Generator: Gravit.io --><svg xmlns="http://www.w3.org/2000/svg" xmlns:xlink="http://www.w3.org/1999/xlink" style="isolation:isolate" viewBox="0 0 512 512" width="512" height="512"><g id="null"><path d=" M 229.632 423.421 L 229.632 366.829 C 229.632 363.988 231.935 361.684 234.776 361.684 C 237.618 361.684 239.921 363.988 239.921 366.829 L 239.921 423.421 L 260.5 423.421 L 260.5 356.539 C 260.5 353.698 262.803 351.395 265.645 351.395 C 268.486 351.395 270.789 353.698 270.789 356.539 L 270.789 423.421 L 291.368 423.421 L 291.368 366.829 C 291.368 363.988 293.672 361.684 296.513 361.684 C 299.355 361.684 301.658 363.988 301.658 366.829 L 301.658 423.421 L 319.747 423.421 C 321.352 420.591 322.237 416.97 322.237 412.319 L 322.237 371.758 C 322.237 349.522 302.584 317.933 278.496 317.933 L 252.783 317.933 C 228.706 317.933 209.053 349.532 209.053 371.758 L 209.053 412.319 C 209.053 416.97 209.938 420.591 211.532 423.421 L 229.632 423.421 Z " fill="rgb(69,90,100)"/><path d=" M 369.754 271.106 C 369.754 271.106 389.448 267.731 401.075 267.937 C 412.836 268.05 426.161 271.672 426.161 271.672 M 364.794 277.455 C 364.794 277.455 387.287 275.366 396.558 275.654 C 409.44 275.983 423.228 279.945 423.228 279.945 M 163.409 269.995 C 163.409 269.995 135.545 267.474 126.84 267.474 C 118.114 267.474 101.61 269.995 93.666 272.269 M 169.737 278.689 C 169.737 278.689 140.525 275.983 127.231 277.578 C 111.334 279.461 97.453 287.785 97.453 287.785" fill="none" vector-effect="non-scaling-stroke" stroke-width="2.572" stroke="rgb(69,90,100)" stroke-linejoin="round" stroke-linecap="round" stroke-miterlimit="10"/><path d=" M 159.396 242.944 C 159.396 197.505 206.923 155.895 265.645 155.895 C 324.264 155.895 371.894 197.485 371.894 242.944 C 371.894 288.413 337.805 320.526 265.645 320.526 C 193.495 320.526 159.396 288.413 159.396 242.944 Z " fill="rgb(69,90,100)"/><path d=" M 307.688 169.384 C 307.688 169.384 324.943 145.595 356.768 145.595 C 369.445 158.261 360.73 194.573 356.583 205.469 L 307.688 169.384 Z  M 223.489 169.395 C 223.489 169.395 206.233 145.605 174.531 145.605 C 161.865 158.292 170.457 194.583 174.593 205.48 L 223.489 169.395 Z  M 220.433 370.564 L 191.725 370.564 C 179.172 370.564 168.059 365.069 162.678 355.078 C 156.638 343.976 150.948 331.413 136.08 321.03 C 133.456 319.189 134.968 316.524 140.123 317.121 C 145.155 317.645 154.693 318.757 161.999 328.315 C 169.284 337.885 177.238 348.864 190.912 348.864 C 204.453 348.864 219.177 349.224 226.596 339.418 L 220.433 370.564 Z " fill="rgb(69,90,100)"/><path d=" M 260.5 53 C 152.502 53 65 140.502 65 248.5 C 65 356.498 152.502 444 260.5 444 C 368.498 444 456 356.498 456 248.5 C 456 140.502 368.498 53 260.5 53 Z  M 260.5 413.471 C 169.562 413.471 95.529 339.438 95.529 248.5 C 95.529 157.562 169.562 83.529 260.5 83.529 C 351.438 83.529 425.471 157.562 425.471 248.5 C 425.471 339.438 351.438 413.471 260.5 413.471 Z " fill="rgb(0,188,212)"/></g></svg>