<?xml version="1.0" standalone="no"?><!-- Generator: Gravit.io --><svg xmlns="http://www.w3.org/2000/svg" xmlns:xlink="http://www.w3.org/1999/xlink" style="isolation:isolate" viewBox="0 0 64 64" width="64" height="64"><path d=" M 31.818 5.499 C 17.254 5.499 5.444 17.309 5.444 31.878 C 5.444 43.53 13.001 53.417 23.483 56.906 C 24.802 57.147 25.284 56.334 25.284 55.635 C 25.284 55.009 25.262 53.349 25.248 51.149 C 17.911 52.742 16.364 47.612 16.364 47.612 C 15.164 44.566 13.436 43.754 13.436 43.754 C 11.04 42.117 13.616 42.152 13.616 42.152 C 16.263 42.339 17.656 44.871 17.656 44.871 C 20.008 48.902 23.831 47.737 25.332 47.063 C 25.572 45.359 26.253 44.196 27.007 43.537 C 21.149 42.871 14.992 40.609 14.992 30.5 C 14.992 27.62 16.021 25.266 17.707 23.422 C 17.436 22.754 16.531 20.072 17.966 16.441 C 17.966 16.441 20.182 15.731 25.22 19.145 C 27.372 18.559 29.592 18.26 31.823 18.257 C 34.063 18.268 36.32 18.56 38.426 19.145 C 43.462 15.731 45.673 16.441 45.673 16.441 C 47.113 20.072 46.207 22.754 45.935 23.422 C 47.625 25.266 48.645 27.62 48.645 30.5 C 48.645 40.633 42.477 42.862 36.601 43.515 C 37.549 44.328 38.393 45.939 38.393 48.399 C 38.393 51.925 38.36 54.769 38.36 55.635 C 38.36 56.341 38.835 57.161 40.173 56.903 C 50.647 53.406 58.198 43.528 58.198 31.878 C 58.198 17.309 46.387 5.499 31.818 5.499 Z " fill-rule="evenodd" fill="rgb(238,238,238)"/></svg>