<?xml version="1.0" standalone="no"?><!-- Generator: Gravit.io --><svg xmlns="http://www.w3.org/2000/svg" xmlns:xlink="http://www.w3.org/1999/xlink" style="isolation:isolate" viewBox="0 0 256 256" width="256" height="256"><path d=" M 60.833 141.323 L 57.096 141.323 L 57.096 43.04 L 50.025 43.04 L 50.025 141.323 L 46.288 141.323 C 41.793 141.323 38.106 145.01 38.106 149.505 L 38.106 175.667 C 38.106 180.162 41.793 183.848 46.288 183.848 L 50.025 183.848 L 50.025 208.949 L 57.096 208.949 L 57.096 183.848 L 60.833 183.848 C 65.328 183.848 69.015 180.162 69.015 175.667 L 69.015 149.455 C 68.964 144.96 65.328 141.323 60.833 141.323 Z  M 46.288 146.879 L 60.783 146.879 C 62.197 146.879 63.409 148.04 63.409 149.505 L 63.409 160.566 L 43.661 160.566 L 43.661 149.505 C 43.688 148.066 44.849 146.906 46.288 146.879 L 46.288 146.879 Z  M 60.833 178.293 L 46.338 178.293 C 44.924 178.293 43.712 177.131 43.712 175.667 L 43.712 164.606 L 63.459 164.606 L 63.459 175.667 C 63.409 177.081 62.247 178.293 60.833 178.293 L 60.833 178.293 Z  M 111.591 92.131 L 107.853 92.131 L 107.853 43.04 L 100.783 43.04 L 100.783 92.131 L 97.045 92.131 C 92.55 92.131 88.863 95.818 88.863 100.313 L 88.863 126.525 C 88.863 131.02 92.55 134.707 97.045 134.707 L 100.783 134.707 L 100.783 209 L 107.853 209 L 107.853 134.657 L 111.591 134.657 C 116.086 134.657 119.773 130.97 119.773 126.475 L 119.773 100.263 C 119.718 95.775 116.079 92.159 111.591 92.131 L 111.591 92.131 Z  M 97.045 97.687 L 111.54 97.687 C 112.954 97.687 114.167 98.848 114.167 100.313 L 114.167 111.374 L 94.419 111.374 L 94.419 100.313 C 94.446 98.874 95.606 97.714 97.045 97.687 L 97.045 97.687 Z  M 111.591 129.101 L 97.045 129.101 C 95.631 129.101 94.419 127.939 94.419 126.475 L 94.419 115.414 L 114.167 115.414 L 114.167 126.475 C 114.167 127.939 113.005 129.101 111.591 129.101 Z  M 162.348 117.737 L 158.611 117.737 L 158.611 43.04 L 151.54 43.04 L 151.54 117.737 L 147.803 117.737 C 143.308 117.737 139.621 121.424 139.621 125.919 L 139.621 152.131 C 139.621 156.626 143.308 160.313 147.803 160.313 L 151.54 160.313 L 151.54 208.949 L 158.611 208.949 L 158.611 160.313 L 162.348 160.313 C 166.843 160.313 170.53 156.626 170.53 152.131 L 170.53 125.919 C 170.48 121.424 166.843 117.737 162.348 117.737 Z  M 147.803 123.293 L 162.298 123.293 C 163.712 123.293 164.924 124.455 164.924 125.919 L 164.924 136.98 L 145.177 136.98 L 145.177 125.919 C 145.177 124.505 146.389 123.293 147.803 123.293 L 147.803 123.293 Z  M 162.348 154.758 L 147.853 154.758 C 146.439 154.758 145.227 153.596 145.227 152.131 L 145.227 141.071 L 164.975 141.071 L 164.975 152.131 C 164.924 153.545 163.762 154.758 162.348 154.758 L 162.348 154.758 Z  M 213.106 133.242 L 209.369 133.242 L 209.369 43.04 L 202.298 43.04 L 202.298 133.242 L 198.56 133.242 C 194.066 133.242 190.379 136.929 190.379 141.424 L 190.379 167.636 C 190.379 172.131 194.066 175.818 198.56 175.818 L 202.298 175.818 L 202.298 209 L 209.369 209 L 209.369 175.818 L 213.106 175.818 C 217.601 175.818 221.288 172.131 221.288 167.636 L 221.288 141.424 C 221.237 136.929 217.601 133.242 213.106 133.242 L 213.106 133.242 Z  M 198.56 138.798 L 213.055 138.798 C 214.47 138.798 215.682 139.96 215.682 141.424 L 215.682 152.485 L 195.934 152.485 L 195.934 141.424 C 195.934 139.96 197.146 138.798 198.56 138.798 L 198.56 138.798 Z  M 213.106 170.212 L 198.56 170.212 C 197.146 170.212 195.934 169.051 195.934 167.586 L 195.934 156.525 L 215.682 156.525 L 215.682 167.586 C 215.682 169.051 214.52 170.212 213.106 170.212 Z " fill="rgb(0,188,212)"/></svg>