<?xml version="1.0" standalone="no"?><!-- Generator: Gravit.io --><svg xmlns="http://www.w3.org/2000/svg" xmlns:xlink="http://www.w3.org/1999/xlink" style="isolation:isolate" viewBox="0 0 256 256" width="256" height="256"><path d="M 96.761 51.853 L 96.761 51.853 C 99.189 51.853 101.16 54.089 101.16 56.842 L 101.16 65.46 C 101.16 68.213 99.189 70.449 96.761 70.449 L 96.761 70.449 C 94.334 70.449 92.363 68.213 92.363 65.46 L 92.363 56.842 C 92.363 54.089 94.334 51.853 96.761 51.853 Z" style="stroke:none;fill:#FFC200;stroke-miterlimit:10;"/><path d="M 154.449 80.811 L 154.449 80.811 C 156.696 79.892 159.334 81.135 160.336 83.585 L 187.753 150.611 C 188.755 153.061 187.745 155.796 185.498 156.715 L 185.498 156.715 C 183.251 157.634 180.614 156.391 179.611 153.941 L 152.194 86.916 C 151.192 84.465 152.203 81.73 154.449 80.811 Z" style="stroke:none;fill:#FFC200;stroke-miterlimit:10;"/><path d="M 66.077 81.008 L 66.077 81.008 C 66.077 78.581 68.313 76.61 71.067 76.61 L 79.684 76.61 C 82.438 76.61 84.673 78.581 84.673 81.008 L 84.673 81.008 C 84.673 83.436 82.438 85.407 79.684 85.407 L 71.067 85.407 C 68.313 85.407 66.077 83.436 66.077 81.008 Z" style="stroke:none;fill:#FFC200;stroke-miterlimit:10;"/><path d="M 75.093 59.887 L 75.093 59.887 C 76.841 58.201 79.811 58.442 81.723 60.424 L 87.705 66.627 C 89.617 68.609 89.751 71.586 88.003 73.271 L 88.003 73.271 C 86.256 74.956 83.286 74.716 81.374 72.734 L 75.391 66.531 C 73.48 64.549 73.346 61.572 75.093 59.887 Z" style="stroke:none;fill:#FFC200;stroke-miterlimit:10;"/><path d="M 92.728 78.522 L 92.728 78.522 C 94.454 76.815 97.367 76.958 99.229 78.841 L 144.313 124.439 C 146.175 126.322 146.285 129.236 144.558 130.943 L 144.558 130.943 C 142.832 132.649 139.919 132.506 138.058 130.623 L 92.974 85.026 C 91.112 83.143 91.002 80.228 92.728 78.522 Z" style="stroke:none;fill:#FFC200;stroke-miterlimit:10;"/><path d="M 97.798 109.295 L 97.798 109.295 C 99.524 107.588 102.36 107.654 104.127 109.441 L 134.553 140.214 C 136.321 142.002 136.354 144.838 134.628 146.545 L 134.628 146.545 C 132.901 148.252 130.065 148.186 128.298 146.399 L 97.872 115.626 C 96.105 113.839 96.071 111.002 97.798 109.295 Z" style="stroke:none;fill:#FFC200;stroke-miterlimit:10;"/><path d="M 89.105 126.643 L 89.206 126.543 C 90.904 124.864 93.647 124.88 95.326 126.578 L 120.66 152.201 C 122.339 153.899 122.324 156.641 120.625 158.321 L 120.524 158.42 C 118.826 160.1 116.084 160.084 114.405 158.386 L 89.071 132.763 C 87.391 131.064 87.407 128.322 89.105 126.643 Z" style="stroke:none;fill:#FFC200;stroke-miterlimit:10;"/><path d="M 80.268 144.01 L 80.268 144.01 C 81.995 142.303 84.961 142.501 86.889 144.451 L 123.762 181.744 C 125.69 183.694 125.854 186.662 124.128 188.369 L 124.128 188.369 C 122.402 190.076 119.435 189.878 117.507 187.928 L 80.634 150.635 C 78.706 148.685 78.542 145.717 80.268 144.01 Z" style="stroke:none;fill:#FFC200;stroke-miterlimit:10;"/><path d="M 117.248 60.89 L 117.248 60.89 C 115.501 59.205 112.53 59.445 110.619 61.427 L 104.636 67.63 C 102.724 69.612 102.591 72.589 104.338 74.274 L 104.338 74.274 C 106.085 75.96 109.055 75.719 110.967 73.737 L 116.95 67.534 C 118.861 65.552 118.995 62.575 117.248 60.89 Z" style="stroke:none;fill:#FFC200;stroke-miterlimit:10;"/><path d="M 170.211 192.099 L 170.211 192.099 C 168.97 190.013 166.041 189.462 163.675 190.869 L 156.268 195.274 C 153.901 196.681 152.987 199.518 154.228 201.604 L 154.228 201.604 C 155.468 203.691 158.397 204.242 160.764 202.835 L 168.171 198.43 C 170.537 197.022 171.452 194.186 170.211 192.099 Z" style="stroke:none;fill:#FFC200;stroke-miterlimit:10;"/><path d="M 86.846 89.44 L 86.846 89.44 C 85.099 87.755 82.128 87.995 80.217 89.977 L 74.234 96.18 C 72.322 98.162 72.189 101.139 73.936 102.824 L 73.936 102.824 C 75.683 104.51 78.654 104.269 80.565 102.287 L 86.548 96.084 C 88.46 94.102 88.593 91.125 86.846 89.44 Z" style="stroke:none;fill:#FFC200;stroke-miterlimit:10;"/><path d="M 183.893 178.694 L 183.893 178.694 C 182.146 177.009 179.128 177.299 177.158 179.341 L 177.155 179.344 C 175.185 181.386 175.004 184.413 176.752 186.098 L 176.752 186.098 C 178.499 187.783 181.516 187.493 183.486 185.451 L 183.49 185.447 C 185.459 183.405 185.64 180.379 183.893 178.694 Z" style="stroke:none;fill:#FFC200;stroke-miterlimit:10;"/><path d=" M 142.752 124.266 C 150.128 122.586 133.378 101.373 145.453 85.996 C 148.5 83.392 151.335 81.185 155.725 80.524 L 157.877 88.975 C 143.312 93.083 154.142 114.276 153.862 120.438 C 153.582 126.6 149.865 135.793 146.393 135.937 C 142.922 136.081 140.571 133.162 138.58 131.052 L 142.752 124.266 Z " fill="rgb(255,194,0)"/><path d=" M 123.54 181.511 C 136.742 193.09 148.306 197.308 158.202 194.135 L 159.83 203.295 C 147.978 206.985 131.558 200.835 117.736 188.148 L 123.54 181.511 Z " fill="rgb(255,194,0)"/><path d=" M 178.543 151.331 C 183.069 162.777 182.679 172.101 177.344 179.272 L 183.488 185.471 C 190.359 175.663 191.97 165.712 187.928 151.104 L 178.543 151.331 Z " fill="rgb(255,194,0)"/></svg>