<?xml version="1.0" standalone="no"?><!-- Generator: Gravit.io --><svg xmlns="http://www.w3.org/2000/svg" xmlns:xlink="http://www.w3.org/1999/xlink" style="isolation:isolate" viewBox="0 0 512 512" width="512" height="512"><path d=" M 208.12 383.471 L 312.749 383.471 C 323.736 383.471 332.655 392.391 332.655 403.377 L 332.655 407.095 C 332.655 418.081 323.736 427.001 312.749 427.001 L 208.12 427.001 C 197.132 427.001 188.212 418.081 188.212 407.095 L 188.212 403.377 C 188.212 392.391 197.132 383.471 208.12 383.471 Z " fill="rgb(255,194,0)"/><path d=" M 239.386 440.852 L 281.483 440.852 C 290.07 440.852 297.039 447.822 297.039 456.408 L 297.039 466.848 C 297.039 475.433 290.07 482.404 281.483 482.404 L 239.386 482.404 C 230.799 482.404 223.828 475.433 223.828 466.848 L 223.828 456.408 C 223.828 447.822 230.799 440.852 239.386 440.852 Z " fill="rgb(255,194,0)"/><path d=" M 178.32 334.003 C 177.322 352.514 192.29 369.827 200.085 367.641 L 316.826 367.641 C 330.076 366.748 338.01 356.874 340.571 337.96 C 338.035 288.279 400.756 242.686 403.888 165.815 C 407.022 88.946 344.133 21.484 261.423 19.393 C 178.715 17.303 115.273 83.276 115.001 161.858 C 114.729 240.44 164.055 256.998 178.32 334.003 Z  M 217.893 306.301 C 221.783 322.063 220.952 325.942 239.658 326.088 L 281.211 326.088 C 289.271 326.881 298.86 320.175 300.998 308.28 C 305.688 269.74 358.122 220.686 360.358 165.815 C 362.593 110.943 319.913 62.473 260.874 60.979 C 201.834 59.487 162.224 107.803 158.533 163.836 C 154.84 219.871 204.252 251.313 217.893 306.301 Z " fill-rule="evenodd" fill="rgb(255,194,0)"/></svg>