<?xml version="1.0" standalone="no"?><!-- Generator: Gravit.io --><svg xmlns="http://www.w3.org/2000/svg" xmlns:xlink="http://www.w3.org/1999/xlink" style="isolation:isolate" viewBox="0 0 512 256" width="512" height="256"><g id="null"><path d=" M 93.353 170.326 L 133.226 170.326 C 137.413 170.326 140.812 173.726 140.812 177.912 L 140.812 179.329 C 140.812 183.516 137.413 186.915 133.226 186.915 L 93.353 186.915 C 89.166 186.915 85.767 183.516 85.767 179.329 L 85.767 177.912 C 85.767 173.726 89.166 170.326 93.353 170.326 Z " fill="rgb(255,194,0)"/><path d=" M 105.268 192.193 L 121.311 192.193 C 124.583 192.193 127.239 194.849 127.239 198.121 L 127.239 202.1 C 127.239 205.371 124.583 208.028 121.311 208.028 L 105.268 208.028 C 101.996 208.028 99.34 205.371 99.34 202.1 L 99.34 198.121 C 99.34 194.849 101.996 192.193 105.268 192.193 Z " fill="rgb(255,194,0)"/><path d=" M 81.997 151.475 C 81.617 158.529 87.321 165.127 90.291 164.294 L 134.779 164.294 C 139.829 163.954 142.852 160.191 143.828 152.983 C 142.862 134.05 166.764 116.676 167.957 87.381 C 169.151 58.088 145.186 32.38 113.666 31.583 C 82.148 30.786 57.971 55.927 57.868 85.874 C 57.764 115.82 76.561 122.13 81.997 151.475 Z  M 97.078 140.918 C 98.56 146.925 98.244 148.403 105.372 148.459 L 121.207 148.459 C 124.279 148.761 127.933 146.206 128.748 141.672 C 130.535 126.986 150.517 108.292 151.369 87.381 C 152.221 66.471 135.956 48 113.457 47.431 C 90.958 46.862 75.864 65.274 74.457 86.627 C 73.049 107.982 91.88 119.963 97.078 140.918 Z " fill-rule="evenodd" fill="rgb(255,194,0)"/></g><g transform="matrix(1,0,0,1,204.537,41.461)"><text transform="matrix(1,0,0,1,0,78.359)" style="font-family:&quot;Abel&quot;;font-weight:400;font-size:80px;font-style:normal;fill:#dddddd;stroke:none;">Portugol</text></g><g transform="matrix(1,0,0,1,208.134,123.334)"><text transform="matrix(1,0,0,1,0,56.811)" style="font-family:&quot;Abel&quot;;font-weight:400;font-size:58px;font-style:normal;fill:#aeaeae;stroke:none;">Studio</text></g></svg>