<?xml version="1.0" standalone="no"?><!-- Generator: Gravit.io --><svg xmlns="http://www.w3.org/2000/svg" xmlns:xlink="http://www.w3.org/1999/xlink" style="isolation:isolate" viewBox="0 0 64 64" width="64" height="64"><path d=" M 54.996 7.525 L 8.78 8.198 C 5.59 8.244 3.035 11.272 3.075 14.961 L 3.438 48.361 C 3.479 52.05 6.098 55.003 9.289 54.957 L 55.504 54.285 C 58.695 54.238 61.248 51.211 61.209 47.52 L 60.846 14.122 C 60.805 10.433 58.186 7.479 54.996 7.525 Z " fill="rgb(244,234,229)"/><path d=" M 60.846 14.163 C 60.831 13.411 60.705 12.667 60.475 11.964 L 32.196 36.292 L 3.4 12.793 C 3.184 13.504 3.075 14.251 3.076 15.002 L 3.094 16.632 L 32.241 40.417 L 60.863 15.791 L 60.846 14.163 Z " fill="rgb(230,98,98)"/></svg>