<?xml version="1.0" standalone="no"?><!-- Generator: Gravit.io --><svg xmlns="http://www.w3.org/2000/svg" xmlns:xlink="http://www.w3.org/1999/xlink" style="isolation:isolate" viewBox="0 0 256 256" width="256" height="256"><path d=" M 237.967 44.459 L 131.964 44.459 L 131.964 37.802 C 131.964 35.981 130.507 34.525 128.687 34.525 C 126.866 34.525 125.41 35.981 125.41 37.802 L 125.41 44.459 L 19.458 44.459 C 17.638 44.459 16.182 45.916 16.182 47.736 L 16.182 189.213 C 16.182 191.033 17.638 192.49 19.458 192.49 L 121.509 192.49 L 109.598 204.401 C 108.35 205.671 108.35 207.707 109.598 208.978 C 110.206 209.582 111.029 209.919 111.886 209.914 C 112.719 209.914 113.551 209.602 114.175 208.978 L 125.774 197.379 L 125.774 219.693 C 125.774 221.513 127.23 222.97 129.051 222.97 C 130.871 222.97 132.328 221.513 132.328 219.693 L 132.328 196.495 L 144.863 209.03 C 145.471 209.634 146.295 209.971 147.152 209.966 C 147.984 209.966 148.816 209.654 149.44 209.03 C 150.688 207.782 150.688 205.701 149.44 204.453 L 137.529 192.542 L 237.967 192.542 C 239.788 192.542 241.244 191.085 241.244 189.265 L 241.244 47.684 C 241.244 45.916 239.788 44.459 237.967 44.459 L 237.967 44.459 Z  M 234.742 185.936 L 22.683 185.936 L 22.683 50.961 L 234.742 50.961 L 234.742 185.936 Z " fill="rgb(0,188,212)"/></svg>