<?xml version="1.0" standalone="no"?><!-- Generator: Gravit.io --><svg xmlns="http://www.w3.org/2000/svg" xmlns:xlink="http://www.w3.org/1999/xlink" style="isolation:isolate" viewBox="0 0 256 256" width="256" height="256"><g id="null"><path d=" M 141.14 96.218 C 133.245 92.924 124.363 92.912 116.459 96.184 C 108.555 99.455 102.28 105.742 99.023 113.652 C 94.919 123.6 96.042 134.939 102.018 143.889 C 107.994 152.839 118.037 158.222 128.798 158.244 C 141.851 158.268 153.623 150.399 158.593 138.329 C 165.38 121.881 157.573 103.043 141.14 96.218 L 141.14 96.218 Z  M 149.59 134.605 C 147.317 140.125 142.939 144.513 137.424 146.798 C 131.908 149.082 125.71 149.075 120.2 146.779 C 108.732 142.011 103.286 128.862 108.026 117.383 C 110.299 111.863 114.678 107.477 120.193 105.194 C 125.709 102.91 131.906 102.918 137.416 105.215 C 148.883 109.98 154.329 123.127 149.59 134.605 Z  M 192.117 122.748 L 212.753 107.665 L 201.12 79.611 L 175.871 83.528 C 174.421 81.915 172.888 80.379 171.276 78.927 L 175.193 53.678 L 147.152 42.064 L 132.056 62.681 C 129.88 62.575 127.717 62.575 125.559 62.687 L 110.488 42.064 L 82.428 53.691 L 86.333 78.934 C 84.729 80.382 83.187 81.918 81.745 83.522 L 56.502 79.605 L 44.875 107.665 L 65.492 122.748 C 65.38 124.9 65.38 127.082 65.492 129.246 L 44.881 144.323 L 56.495 172.389 L 81.745 168.472 C 83.206 170.088 84.741 171.63 86.333 173.073 L 82.428 198.316 L 110.469 209.93 L 125.559 189.319 C 127.717 189.431 129.886 189.425 132.056 189.319 L 147.134 209.93 L 175.199 198.309 L 171.282 173.066 C 172.887 171.618 174.429 170.082 175.883 168.472 L 201.126 172.389 L 212.741 144.329 L 192.13 129.252 C 192.242 127.069 192.229 124.893 192.117 122.748 L 192.117 122.748 Z  M 195.058 161.583 L 171.96 158.008 L 170.201 160.14 C 168.031 162.777 165.609 165.197 162.97 167.365 L 160.818 169.131 L 164.4 192.235 L 150.485 198.005 L 136.676 179.128 L 133.909 179.402 C 130.513 179.743 127.091 179.747 123.694 179.414 L 120.933 179.141 L 107.131 198.005 L 93.216 192.241 L 96.797 169.137 L 94.652 167.377 C 92.016 165.202 89.595 162.778 87.421 160.14 L 85.655 158.008 L 62.57 161.583 L 56.8 147.668 L 75.664 133.865 L 75.39 131.111 C 75.062 127.707 75.062 124.28 75.39 120.877 L 75.664 118.116 L 56.8 104.313 L 62.57 90.399 L 85.668 93.986 L 87.427 91.841 C 89.594 89.205 92.014 86.787 94.652 84.623 L 96.797 82.857 L 93.216 59.753 L 107.143 53.989 L 120.933 72.859 L 123.694 72.586 C 127.099 72.256 130.528 72.254 133.934 72.579 L 136.688 72.841 L 150.491 53.983 L 164.4 59.74 L 160.818 82.838 L 162.951 84.598 C 165.587 86.774 168.018 89.211 170.188 91.847 L 171.954 93.992 L 195.052 90.405 L 200.822 104.32 L 181.933 118.135 L 182.207 120.902 C 182.542 124.234 182.549 127.673 182.225 131.129 L 181.964 133.884 L 200.815 147.674 L 195.058 161.583 L 195.058 161.583 Z " fill-rule="evenodd" fill="rgb(0,188,212)"/><rect x="16.902" y="14.085" width="223.829" height="223.829" transform="matrix(1,0,0,1,0,0)" fill="none"/></g></svg>