<?xml version="1.0" standalone="no"?><!-- Generator: Gravit.io --><svg xmlns="http://www.w3.org/2000/svg" xmlns:xlink="http://www.w3.org/1999/xlink" style="isolation:isolate" viewBox="0 0 512 512" width="512" height="512"><path d="M 198.985 181.092 L 222.101 191.318 L 222.101 244.341 L 222.406 244.341 L 266.357 263.784 L 266.357 308.171 L 197.179 277.569 L 197.179 248.668 L 197.086 248.668 L 197.124 248.582 L 161.844 232.976 C 162.043 231.869 162.146 230.73 162.146 229.567 C 162.146 218.959 153.534 210.347 142.926 210.347 C 132.319 210.347 123.707 218.959 123.707 229.567 C 123.707 240.175 132.319 248.787 142.926 248.787 C 148.169 248.787 152.924 246.683 156.393 243.275 L 185.555 256.175 L 185.555 285.332 L 185.995 285.332 L 266.357 320.882 L 266.357 441.721 L 277.982 441.721 L 277.982 401.264 L 278.013 401.336 L 372.267 359.641 L 372.295 359.641 L 372.295 359.629 L 372.408 359.579 L 372.295 359.324 L 372.295 331.673 C 379.829 329.072 385.247 321.914 385.247 313.5 C 385.247 302.893 376.635 294.28 366.027 294.28 C 355.42 294.28 346.808 302.893 346.808 313.5 C 346.808 322.249 352.666 329.641 360.671 331.962 L 360.671 352.06 L 277.982 388.639 L 277.982 354.489 L 317.377 337.062 L 317.282 336.846 L 317.364 336.846 L 317.364 279.808 L 386.799 249.092 L 386.744 248.968 L 386.744 223.637 C 394.68 221.273 400.474 213.915 400.474 205.214 C 400.474 194.606 391.862 185.994 381.254 185.994 C 370.646 185.994 362.034 194.606 362.034 205.214 C 362.034 213.677 367.516 220.87 375.12 223.433 L 375.12 241.548 L 305.656 272.276 L 305.74 272.466 L 305.74 329.499 L 277.982 341.778 L 277.982 221.239 L 334.463 196.254 L 334.34 195.975 L 334.34 172.965 C 342.077 170.479 347.682 163.22 347.682 154.662 C 347.682 144.054 339.07 135.442 328.462 135.442 C 317.854 135.442 309.242 144.054 309.242 154.662 C 309.242 163.268 314.911 170.561 322.716 173.007 L 322.716 188.739 L 277.982 208.528 L 277.982 143.784 C 285.907 141.413 291.691 134.06 291.691 125.367 C 291.691 114.76 283.079 106.148 272.471 106.148 C 261.863 106.148 253.251 114.76 253.251 125.367 C 253.251 133.838 258.743 141.036 266.357 143.593 L 266.357 251.073 L 233.725 236.638 L 233.725 183.989 L 233.814 183.789 L 203.619 170.431 C 203.685 169.785 203.718 169.13 203.718 168.467 C 203.718 157.859 195.106 149.247 184.498 149.247 C 173.891 149.247 165.278 157.859 165.278 168.467 C 165.278 179.074 173.891 187.686 184.498 187.686 C 190.275 187.686 195.46 185.132 198.985 181.092 Z M 188.474 346.902 L 233.461 366.803 L 233.461 446.666 L 245.086 446.666 L 245.086 359.649 L 244.351 359.649 L 244.625 359.03 L 193.919 336.6 C 194.116 335.496 194.219 334.361 194.219 333.201 C 194.219 322.593 185.607 313.981 174.999 313.981 C 164.392 313.981 155.78 322.593 155.78 333.201 C 155.78 343.809 164.392 352.421 174.999 352.421 C 180.246 352.421 185.004 350.314 188.474 346.902 Z" style="stroke:none;fill:#FFC200;stroke-miterlimit:10;"/><path d=" M 70.059 256 C 70.059 144.546 160.546 54.059 272 54.059 C 383.454 54.059 473.941 144.546 473.941 256 C 473.941 367.454 383.454 457.941 272 457.941 C 160.546 457.941 70.059 367.454 70.059 256 Z  M 90.43 256.917 C 90.43 156.2 172.2 74.43 272.917 74.43 C 373.634 74.43 455.403 156.2 455.403 256.917 C 455.403 357.634 373.634 439.403 272.917 439.403 C 172.2 439.403 90.43 357.634 90.43 256.917 Z " fill-rule="evenodd" fill="rgb(255,194,0)"/></svg>