<?xml version="1.0" standalone="no"?><!-- Generator: Gravit.io --><svg xmlns="http://www.w3.org/2000/svg" xmlns:xlink="http://www.w3.org/1999/xlink" style="isolation:isolate" viewBox="0 0 64 64" width="64" height="64"><path d=" M 19.139 7.877 L 21.945 7.877 L 23.754 15.134 L 23.929 15.134 L 25.656 7.881 L 28.491 7.881 L 25.246 18.492 L 25.246 26.363 L 22.457 26.363 L 22.457 18.833 L 19.139 7.877 L 19.139 7.877 L 19.139 7.877 Z  M 28.363 15.698 C 28.363 14.663 28.699 13.835 29.365 13.224 C 30.031 12.608 30.926 12.299 32.053 12.299 C 33.08 12.299 33.918 12.623 34.572 13.272 C 35.225 13.917 35.553 14.753 35.553 15.773 L 35.553 22.686 C 35.553 23.829 35.233 24.73 34.592 25.385 C 33.95 26.037 33.071 26.363 31.942 26.363 C 30.855 26.363 29.991 26.021 29.335 25.35 C 28.684 24.68 28.361 23.774 28.361 22.637 L 28.361 15.697 L 28.363 15.697 L 28.363 15.698 L 28.363 15.698 L 28.363 15.698 Z  M 30.912 22.888 C 30.912 23.251 30.999 23.54 31.182 23.741 C 31.357 23.939 31.608 24.039 31.936 24.039 C 32.273 24.039 32.536 23.937 32.734 23.73 C 32.931 23.531 33.032 23.247 33.032 22.888 L 33.032 15.596 C 33.04 15.327 32.929 15.068 32.727 14.889 C 32.528 14.71 32.262 14.618 31.936 14.618 C 31.664 14.608 31.398 14.705 31.196 14.889 C 31.005 15.074 30.902 15.331 30.912 15.596 L 30.912 22.888 L 30.912 22.888 L 30.912 22.888 Z  M 44.727 12.637 L 44.727 26.363 L 42.251 26.363 L 42.251 24.691 C 41.795 25.238 41.321 25.653 40.824 25.934 C 40.333 26.218 39.854 26.363 39.39 26.363 C 38.816 26.363 38.387 26.166 38.095 25.766 C 37.803 25.37 37.66 24.775 37.66 23.974 L 37.66 12.637 L 40.135 12.637 L 40.135 23.05 C 40.135 23.362 40.188 23.592 40.293 23.735 C 40.392 23.873 40.567 23.949 40.795 23.949 C 40.981 23.949 41.211 23.856 41.484 23.665 C 41.766 23.479 42.02 23.238 42.251 22.947 L 42.251 12.637 L 44.727 12.637 L 44.727 12.637 L 44.727 12.637 Z " fill="rgb(238,238,238)"/><g id="null"><path d=" M 44.562 40.024 C 44.273 40.024 44.076 40.101 43.957 40.262 C 43.873 40.382 43.766 40.657 43.766 41.255 L 43.766 42.277 L 45.341 42.277 L 45.341 41.255 C 45.341 40.666 45.231 40.39 45.141 40.255 C 45.029 40.098 44.839 40.024 44.562 40.024 Z  M 35.337 40.077 C 35.21 40.142 35.095 40.229 34.997 40.332 L 34.997 48.091 C 35.142 48.237 35.283 48.343 35.414 48.41 C 35.556 48.481 35.712 48.517 35.871 48.516 C 36.176 48.516 36.271 48.396 36.301 48.353 C 36.376 48.26 36.458 48.064 36.458 47.64 L 36.458 41.032 C 36.458 40.665 36.388 40.381 36.258 40.206 C 36.081 39.971 35.732 39.879 35.337 40.077 Z " fill="rgb(244,67,54)"/><path d=" M 51.095 34.865 C 51.095 31.773 48.534 29.267 45.379 29.267 C 40.773 29.08 36.164 28.993 31.554 29.005 C 26.945 28.993 22.335 29.081 17.73 29.267 C 14.578 29.267 12.016 31.773 12.016 34.865 C 11.83 37.309 11.74 39.759 11.748 42.209 C 11.741 44.656 11.827 47.104 12.017 49.552 C 12.017 52.649 14.576 55.155 17.73 55.155 C 22.237 55.34 26.85 55.419 31.554 55.412 C 36.26 55.423 40.874 55.338 45.379 55.155 C 48.534 55.155 51.095 52.649 51.095 49.552 C 51.283 47.104 51.371 44.656 51.361 42.209 C 51.371 39.759 51.283 37.309 51.095 34.865 L 51.095 34.865 L 51.095 34.865 Z  M 20.596 50.635 C 20.595 50.784 20.473 50.904 20.324 50.904 L 17.619 50.904 C 17.469 50.904 17.348 50.784 17.347 50.635 L 17.347 36.071 L 14.819 36.071 C 14.671 36.071 14.55 35.951 14.549 35.803 L 14.549 33.289 C 14.549 33.141 14.67 33.019 14.819 33.019 L 23.126 33.019 C 23.277 33.019 23.398 33.141 23.398 33.289 L 23.398 35.803 C 23.398 35.874 23.369 35.943 23.318 35.993 C 23.267 36.044 23.198 36.072 23.126 36.071 L 20.596 36.071 L 20.596 50.635 L 20.596 50.635 Z  M 30.227 50.635 C 30.226 50.784 30.104 50.904 29.955 50.904 L 27.549 50.904 C 27.4 50.904 27.279 50.784 27.277 50.635 L 27.277 49.907 C 26.985 50.194 26.658 50.442 26.303 50.647 C 25.779 50.947 25.278 51.091 24.771 51.091 C 24.127 51.091 23.63 50.858 23.296 50.408 C 22.982 49.98 22.82 49.348 22.82 48.532 L 22.82 37.836 C 22.82 37.688 22.941 37.567 23.093 37.567 L 25.498 37.567 C 25.648 37.567 25.77 37.688 25.77 37.836 L 25.77 47.644 C 25.77 47.966 25.828 48.097 25.865 48.149 C 25.882 48.171 25.931 48.237 26.135 48.237 C 26.204 48.237 26.362 48.208 26.649 48.014 C 26.881 47.862 27.09 47.672 27.274 47.453 L 27.274 37.836 C 27.274 37.688 27.395 37.567 27.547 37.567 L 29.951 37.567 C 30.102 37.567 30.223 37.688 30.223 37.836 L 30.223 50.634 L 30.227 50.634 L 30.227 50.635 L 30.227 50.635 Z  M 39.477 47.982 C 39.477 48.954 39.267 49.712 38.852 50.238 C 38.422 50.79 37.8 51.064 37.006 51.064 C 36.501 51.064 36.038 50.963 35.625 50.757 C 35.397 50.641 35.184 50.497 34.993 50.327 L 34.993 50.635 C 34.992 50.707 34.963 50.776 34.912 50.826 C 34.861 50.877 34.792 50.905 34.721 50.904 L 32.295 50.904 C 32.223 50.905 32.154 50.877 32.102 50.827 C 32.051 50.776 32.022 50.707 32.022 50.635 L 32.022 33.285 C 32.022 33.137 32.143 33.017 32.295 33.017 L 34.721 33.017 C 34.87 33.017 34.993 33.137 34.993 33.285 L 34.993 38.193 C 35.191 38.013 35.402 37.863 35.619 37.74 C 35.997 37.523 36.425 37.407 36.861 37.402 C 37.707 37.402 38.37 37.716 38.821 38.334 C 39.254 38.928 39.474 39.788 39.474 40.886 L 39.477 47.982 L 39.477 47.982 Z  M 48.362 44.539 C 48.362 44.611 48.333 44.68 48.281 44.731 C 48.23 44.781 48.161 44.81 48.089 44.809 L 43.767 44.809 L 43.767 46.95 C 43.767 47.731 43.875 48.066 43.962 48.205 C 44.032 48.322 44.163 48.468 44.541 48.468 C 44.844 48.468 45.053 48.396 45.16 48.252 C 45.209 48.175 45.343 47.882 45.343 46.947 L 45.343 46.056 C 45.343 45.905 45.466 45.786 45.617 45.786 L 48.089 45.786 C 48.239 45.786 48.359 45.905 48.359 46.056 L 48.359 47.018 C 48.359 48.397 48.031 49.453 47.386 50.166 C 46.739 50.883 45.762 51.249 44.484 51.249 C 43.332 51.249 42.406 50.858 41.739 50.099 C 41.079 49.345 40.742 48.311 40.742 47.018 L 40.742 41.272 C 40.742 40.094 41.109 39.12 41.838 38.372 C 42.564 37.622 43.52 37.241 44.669 37.241 C 45.844 37.241 46.764 37.599 47.405 38.301 C 48.038 38.996 48.361 39.996 48.361 41.273 L 48.361 44.54 L 48.362 44.54 L 48.362 44.539 L 48.362 44.539 Z " fill="rgb(244,67,54)"/></g></svg>