<?xml version="1.0" standalone="no"?><!-- Generator: Gravit.io --><svg xmlns="http://www.w3.org/2000/svg" xmlns:xlink="http://www.w3.org/1999/xlink" style="isolation:isolate" viewBox="0 0 64 64" width="64" height="64"><path d=" M 19.139 7.877 L 21.945 7.877 L 23.754 15.134 L 23.929 15.134 L 25.656 7.881 L 28.491 7.881 L 25.246 18.492 L 25.246 26.363 L 22.457 26.363 L 22.457 18.833 L 19.139 7.877 L 19.139 7.877 Z  M 28.363 15.698 C 28.363 14.663 28.699 13.835 29.365 13.224 C 30.031 12.608 30.926 12.299 32.053 12.299 C 33.08 12.299 33.918 12.623 34.572 13.272 C 35.225 13.917 35.553 14.753 35.553 15.773 L 35.553 22.686 C 35.553 23.829 35.233 24.73 34.592 25.385 C 33.95 26.037 33.071 26.363 31.942 26.363 C 30.855 26.363 29.991 26.021 29.335 25.35 C 28.684 24.68 28.361 23.774 28.361 22.637 L 28.361 15.697 L 28.363 15.697 L 28.363 15.698 L 28.363 15.698 Z  M 30.912 22.888 C 30.912 23.251 30.999 23.54 31.182 23.741 C 31.357 23.939 31.608 24.039 31.936 24.039 C 32.273 24.039 32.536 23.937 32.734 23.73 C 32.931 23.531 33.032 23.247 33.032 22.888 L 33.032 15.596 C 33.04 15.327 32.929 15.068 32.727 14.889 C 32.528 14.71 32.262 14.618 31.936 14.618 C 31.664 14.608 31.398 14.705 31.196 14.889 C 31.005 15.074 30.902 15.331 30.912 15.596 L 30.912 22.888 L 30.912 22.888 Z  M 44.727 12.637 L 44.727 26.363 L 42.251 26.363 L 42.251 24.691 C 41.795 25.238 41.321 25.653 40.824 25.934 C 40.333 26.218 39.854 26.363 39.39 26.363 C 38.816 26.363 38.387 26.166 38.095 25.766 C 37.803 25.37 37.66 24.775 37.66 23.974 L 37.66 12.637 L 40.135 12.637 L 40.135 23.05 C 40.135 23.362 40.188 23.592 40.293 23.735 C 40.392 23.873 40.567 23.949 40.795 23.949 C 40.981 23.949 41.211 23.856 41.484 23.665 C 41.766 23.479 42.02 23.238 42.251 22.947 L 42.251 12.637 L 44.727 12.637 L 44.727 12.637 Z " fill="rgb(238,238,238)"/><path d=" M 51.172 34.865 C 51.172 31.773 48.611 29.267 45.456 29.267 C 40.85 29.08 36.241 28.993 31.631 29.005 C 27.022 28.993 22.412 29.081 17.807 29.267 C 14.655 29.267 12.093 31.773 12.093 34.865 C 11.907 37.309 11.817 39.759 11.825 42.209 C 11.818 44.656 11.904 47.104 12.094 49.552 C 12.094 52.649 14.653 55.155 17.807 55.155 C 22.314 55.34 26.927 55.419 31.631 55.412 C 36.337 55.423 40.951 55.338 45.456 55.155 C 48.611 55.155 51.172 52.649 51.172 49.552 C 51.36 47.104 51.448 44.656 51.438 42.209 C 51.448 39.759 51.36 37.309 51.172 34.865 L 51.172 34.865 L 51.172 34.865 Z " fill="rgb(255,255,255)"/><g id="null"><path d=" M 44.639 40.024 C 44.35 40.024 44.153 40.101 44.034 40.262 C 43.95 40.382 43.843 40.657 43.843 41.255 L 43.843 42.277 L 45.418 42.277 L 45.418 41.255 C 45.418 40.666 45.308 40.39 45.218 40.255 C 45.106 40.098 44.916 40.024 44.639 40.024 Z  M 35.414 40.077 C 35.287 40.142 35.172 40.229 35.074 40.332 L 35.074 48.091 C 35.219 48.237 35.36 48.343 35.491 48.41 C 35.633 48.481 35.789 48.517 35.948 48.516 C 36.253 48.516 36.348 48.396 36.378 48.353 C 36.453 48.26 36.535 48.064 36.535 47.64 L 36.535 41.032 C 36.535 40.665 36.465 40.381 36.335 40.206 C 36.158 39.971 35.809 39.879 35.414 40.077 Z " fill="rgb(244,67,54)"/><path d=" M 51.172 34.865 C 51.172 31.773 48.611 29.267 45.456 29.267 C 40.85 29.08 36.241 28.993 31.631 29.005 C 27.022 28.993 22.412 29.081 17.807 29.267 C 14.655 29.267 12.093 31.773 12.093 34.865 C 11.907 37.309 11.817 39.759 11.825 42.209 C 11.818 44.656 11.904 47.104 12.094 49.552 C 12.094 52.649 14.653 55.155 17.807 55.155 C 22.314 55.34 26.927 55.419 31.631 55.412 C 36.337 55.423 40.951 55.338 45.456 55.155 C 48.611 55.155 51.172 52.649 51.172 49.552 C 51.36 47.104 51.448 44.656 51.438 42.209 C 51.448 39.759 51.36 37.309 51.172 34.865 L 51.172 34.865 L 51.172 34.865 Z  M 20.673 50.635 C 20.672 50.784 20.55 50.904 20.401 50.904 L 17.696 50.904 C 17.546 50.904 17.425 50.784 17.424 50.635 L 17.424 36.071 L 14.896 36.071 C 14.748 36.071 14.627 35.951 14.626 35.803 L 14.626 33.289 C 14.626 33.141 14.747 33.019 14.896 33.019 L 23.203 33.019 C 23.354 33.019 23.475 33.141 23.475 33.289 L 23.475 35.803 C 23.475 35.874 23.446 35.943 23.395 35.993 C 23.344 36.044 23.275 36.072 23.203 36.071 L 20.673 36.071 L 20.673 50.635 L 20.673 50.635 Z  M 30.304 50.635 C 30.303 50.784 30.181 50.904 30.032 50.904 L 27.626 50.904 C 27.477 50.904 27.356 50.784 27.354 50.635 L 27.354 49.907 C 27.062 50.194 26.735 50.442 26.38 50.647 C 25.856 50.947 25.355 51.091 24.848 51.091 C 24.204 51.091 23.707 50.858 23.373 50.408 C 23.059 49.98 22.897 49.348 22.897 48.532 L 22.897 37.836 C 22.897 37.688 23.018 37.567 23.17 37.567 L 25.575 37.567 C 25.725 37.567 25.847 37.688 25.847 37.836 L 25.847 47.644 C 25.847 47.966 25.905 48.097 25.942 48.149 C 25.959 48.171 26.008 48.237 26.212 48.237 C 26.281 48.237 26.439 48.208 26.726 48.014 C 26.958 47.862 27.167 47.672 27.351 47.453 L 27.351 37.836 C 27.351 37.688 27.472 37.567 27.624 37.567 L 30.028 37.567 C 30.179 37.567 30.3 37.688 30.3 37.836 L 30.3 50.634 L 30.304 50.634 L 30.304 50.635 L 30.304 50.635 Z  M 39.554 47.982 C 39.554 48.954 39.344 49.712 38.929 50.238 C 38.499 50.79 37.877 51.064 37.083 51.064 C 36.578 51.064 36.115 50.963 35.702 50.757 C 35.474 50.641 35.261 50.497 35.07 50.327 L 35.07 50.635 C 35.069 50.707 35.04 50.776 34.989 50.826 C 34.938 50.877 34.869 50.905 34.798 50.904 L 32.372 50.904 C 32.3 50.905 32.231 50.877 32.179 50.827 C 32.128 50.776 32.099 50.707 32.099 50.635 L 32.099 33.285 C 32.099 33.137 32.22 33.017 32.372 33.017 L 34.798 33.017 C 34.947 33.017 35.07 33.137 35.07 33.285 L 35.07 38.193 C 35.268 38.013 35.479 37.863 35.696 37.74 C 36.074 37.523 36.502 37.407 36.938 37.402 C 37.784 37.402 38.447 37.716 38.898 38.334 C 39.331 38.928 39.551 39.788 39.551 40.886 L 39.554 47.982 L 39.554 47.982 Z  M 48.439 44.539 C 48.439 44.611 48.41 44.68 48.358 44.731 C 48.307 44.781 48.238 44.81 48.166 44.809 L 43.844 44.809 L 43.844 46.95 C 43.844 47.731 43.952 48.066 44.039 48.205 C 44.109 48.322 44.24 48.468 44.618 48.468 C 44.921 48.468 45.13 48.396 45.237 48.252 C 45.286 48.175 45.42 47.882 45.42 46.947 L 45.42 46.056 C 45.42 45.905 45.543 45.786 45.694 45.786 L 48.166 45.786 C 48.316 45.786 48.436 45.905 48.436 46.056 L 48.436 47.018 C 48.436 48.397 48.108 49.453 47.463 50.166 C 46.816 50.883 45.839 51.249 44.561 51.249 C 43.409 51.249 42.483 50.858 41.816 50.099 C 41.156 49.345 40.819 48.311 40.819 47.018 L 40.819 41.272 C 40.819 40.094 41.186 39.12 41.915 38.372 C 42.641 37.622 43.597 37.241 44.746 37.241 C 45.921 37.241 46.841 37.599 47.482 38.301 C 48.115 38.996 48.438 39.996 48.438 41.273 L 48.438 44.54 L 48.439 44.54 L 48.439 44.539 L 48.439 44.539 Z " fill="rgb(244,67,54)"/></g></svg>