<?xml version="1.0" standalone="no"?><!-- Generator: Gravit.io --><svg xmlns="http://www.w3.org/2000/svg" xmlns:xlink="http://www.w3.org/1999/xlink" style="isolation:isolate" viewBox="0 0 256 256" width="256" height="256"><path d=" M 209.598 120.854 C 206.826 118.874 188.935 107.519 135.395 106.925 C 136.574 98.823 143.514 92.81 151.701 92.797 L 176.26 92.797 C 188.869 92.797 199.168 82.498 199.168 69.889 C 199.168 57.28 188.869 46.981 176.26 46.981 L 112.619 46.981 L 112.619 42.558 C 112.619 38.729 109.517 35.56 105.622 35.56 L 100.01 35.56 L 94.729 27.968 L 55.515 27.968 L 55.515 32.128 L 41.255 32.128 C 37.426 32.128 34.389 35.23 34.389 38.993 L 34.389 62.363 C 34.389 66.192 37.492 69.229 41.255 69.229 L 55.515 69.229 L 55.515 73.388 L 94.729 73.388 L 100.01 65.796 L 105.688 65.796 C 109.517 65.796 112.685 62.693 112.685 58.798 L 112.685 54.705 L 176.326 54.705 C 184.578 54.705 191.312 61.439 191.312 69.691 C 191.312 77.943 184.578 84.677 176.326 84.677 L 151.767 84.677 C 139.092 84.677 128.662 94.381 127.473 106.727 C 112.091 106.859 98.69 107.717 82.054 110.952 C 70.633 113.196 56.439 115.969 44.622 126.136 C 30.89 137.953 23.299 153.004 23.299 168.518 C 23.299 198.358 45.084 222.652 71.821 222.652 C 84.76 222.652 97.039 213.542 104.367 208.129 L 105.688 207.138 C 111.761 202.715 118.825 200.933 130.906 200.933 C 141.139 200.933 149.523 203.045 156.455 207.336 C 157.841 208.195 159.491 209.317 161.208 210.505 C 168.668 215.655 178.834 222.652 190.057 222.652 C 216.794 222.652 238.58 198.358 238.58 168.518 C 238.448 146.205 222.934 128.908 209.598 120.854 Z  M 41.321 63.486 C 40.793 63.486 40.397 63.089 40.397 62.561 L 40.397 39.191 C 40.397 38.663 40.793 38.267 41.321 38.267 L 55.581 38.267 L 55.581 63.552 L 41.321 63.552 L 41.321 63.486 Z  M 91.626 67.645 L 61.522 67.645 L 61.522 33.976 L 91.626 33.976 L 96.511 40.974 L 96.511 60.713 L 91.626 67.645 Z  M 106.744 58.996 C 106.744 59.591 106.282 60.053 105.688 60.053 L 100.472 60.053 L 100.472 41.568 L 105.688 41.568 C 106.282 41.568 106.744 42.03 106.744 42.624 L 106.744 58.996 Z  M 189.925 213.608 C 181.607 213.608 173.157 207.799 166.357 203.111 C 164.575 201.857 162.858 200.669 161.274 199.744 C 152.824 194.529 142.855 191.954 130.84 191.954 C 116.712 191.954 107.8 194.265 100.142 199.942 L 98.822 200.933 C 92.418 205.686 81.657 213.674 71.755 213.674 C 50.101 213.674 32.475 193.539 32.475 168.783 C 32.475 156.041 38.879 143.498 50.564 133.397 C 60.532 124.815 72.877 122.373 83.77 120.26 C 101.066 116.893 114.798 116.233 131.302 116.233 C 186.756 116.233 203.393 127.786 204.119 128.38 C 204.317 128.578 204.449 128.644 204.647 128.776 C 216.86 136.038 229.205 151.288 229.205 168.783 C 229.205 193.473 211.579 213.608 189.925 213.608 L 189.925 213.608 Z  M 82.978 143.564 L 61.852 143.564 L 61.852 155.315 L 50.101 155.315 L 50.101 176.44 L 61.852 176.44 L 61.852 188.191 L 82.978 188.191 L 82.978 176.44 L 94.729 176.44 L 94.729 155.315 L 82.978 155.315 L 82.978 143.564 Z  M 90.108 159.936 L 90.108 171.819 L 78.357 171.819 L 78.357 183.57 L 66.474 183.57 L 66.474 171.819 L 54.723 171.819 L 54.723 159.936 L 66.474 159.936 L 66.474 148.185 L 78.357 148.185 L 78.357 159.936 L 90.108 159.936 Z  M 164.179 154.985 C 158.765 154.985 154.408 159.408 154.408 164.755 C 154.408 170.169 158.831 174.526 164.179 174.526 C 169.592 174.526 173.949 170.103 173.949 164.755 C 174.015 159.408 169.592 154.985 164.179 154.985 Z  M 164.179 169.971 C 161.436 169.832 159.284 167.568 159.284 164.822 C 159.284 162.075 161.436 159.811 164.179 159.672 C 167.017 159.672 169.328 161.983 169.328 164.822 C 169.394 167.66 167.017 169.971 164.179 169.971 Z  M 187.747 138.085 C 182.333 138.085 177.976 142.508 177.976 147.855 C 177.976 153.203 182.399 157.626 187.747 157.626 C 193.16 157.626 197.517 153.203 197.517 147.855 C 197.517 142.508 193.16 138.085 187.747 138.085 Z  M 187.747 153.004 C 185.004 152.866 182.852 150.601 182.852 147.855 C 182.852 145.109 185.004 142.845 187.747 142.706 C 190.489 142.845 192.642 145.109 192.642 147.855 C 192.642 150.601 190.489 152.866 187.747 153.004 Z  M 183.456 175.78 C 178.042 175.78 173.685 180.203 173.685 185.551 C 173.685 190.964 178.108 195.321 183.456 195.321 C 188.869 195.321 193.226 190.898 193.226 185.551 C 193.226 180.203 188.869 175.78 183.456 175.78 Z  M 183.456 190.766 C 180.713 190.627 178.56 188.363 178.56 185.617 C 178.56 182.871 180.713 180.606 183.456 180.468 C 186.198 180.606 188.351 182.871 188.351 185.617 C 188.351 188.363 186.198 190.627 183.456 190.766 Z  M 207.024 158.88 C 201.61 158.88 197.253 163.303 197.253 168.65 C 197.253 173.998 201.676 178.421 207.024 178.421 C 212.437 178.421 216.794 173.998 216.794 168.65 C 216.794 163.303 212.371 158.88 207.024 158.88 Z  M 207.024 173.866 C 204.281 173.727 202.128 171.463 202.128 168.716 C 202.128 165.97 204.281 163.706 207.024 163.567 C 209.766 163.706 211.919 165.97 211.919 168.716 C 211.919 171.463 209.766 173.727 207.024 173.866 Z  M 109.715 173.866 L 119.419 173.866 L 119.419 178.487 L 109.715 178.487 L 109.715 173.866 Z  M 134.339 173.866 L 144.043 173.866 L 144.043 178.487 L 134.339 178.487 L 134.339 173.866 L 134.339 173.866 Z  M 44.886 44.011 L 50.167 44.011 L 50.167 48.632 L 44.886 48.632 L 44.886 44.011 Z  M 44.886 52.989 L 50.167 52.989 L 50.167 57.61 L 44.886 57.61 L 44.886 52.989 Z " fill="rgb(255,194,0)"/></svg>