<?xml version="1.0" standalone="no"?><!-- Generator: Gravit.io --><svg xmlns="http://www.w3.org/2000/svg" xmlns:xlink="http://www.w3.org/1999/xlink" style="isolation:isolate" viewBox="0 0 256 256" width="256" height="256"><defs><clipPath id="_clipPath_GSSZ76qdeiYlO7nxnBpswrnQhfjbd3vd"><rect width="256" height="256"/></clipPath></defs><g clip-path="url(#_clipPath_GSSZ76qdeiYlO7nxnBpswrnQhfjbd3vd)"><path d=" M 129.357 226.627 L 108.6 226.627 L 108.6 205.735 L 129.357 205.735 L 129.357 226.627 Z  M 127.729 162.459 L 127.729 167.749 L 110.228 167.749 L 110.228 162.459 L 110.228 162.459 Q 110.228 153.505 112.399 146.857 L 112.399 146.857 L 112.399 146.857 Q 114.569 140.21 118.164 135.19 L 118.164 135.19 L 118.164 135.19 Q 121.759 130.171 126.304 126.236 L 126.304 126.236 L 126.304 126.236 Q 130.849 122.302 135.665 118.707 L 135.665 118.707 L 135.665 118.707 Q 140.481 115.112 145.026 111.449 L 145.026 111.449 L 145.026 111.449 Q 149.57 107.786 153.166 103.309 L 153.166 103.309 L 153.166 103.309 Q 156.761 98.832 158.931 93.135 L 158.931 93.135 L 158.931 93.135 Q 161.102 87.437 161.102 79.704 L 161.102 79.704 L 161.102 77.126 L 161.102 77.126 Q 161.102 70.614 158.66 64.984 L 158.66 64.984 L 158.66 64.984 Q 156.218 59.354 151.945 55.149 L 151.945 55.149 L 151.945 55.149 Q 147.671 50.943 142.041 48.501 L 142.041 48.501 L 142.041 48.501 Q 136.411 46.059 129.899 46.059 L 129.899 46.059 L 126.101 46.059 L 126.101 46.059 Q 119.589 46.059 113.959 48.501 L 113.959 48.501 L 113.959 48.501 Q 108.329 50.943 104.055 55.149 L 104.055 55.149 L 104.055 55.149 Q 99.782 59.354 97.34 64.984 L 97.34 64.984 L 97.34 64.984 Q 94.898 70.614 94.898 77.126 L 94.898 77.126 L 94.898 84.995 L 77.398 82.146 L 77.398 77.126 L 77.398 77.126 Q 77.398 67.223 81.128 58.54 L 81.128 58.54 L 81.128 58.54 Q 84.859 49.858 91.371 43.346 L 91.371 43.346 L 91.371 43.346 Q 97.883 36.834 106.633 33.103 L 106.633 33.103 L 106.633 33.103 Q 115.383 29.373 125.287 29.373 L 125.287 29.373 L 130.849 29.373 L 130.849 29.373 Q 140.752 29.373 149.435 33.103 L 149.435 33.103 L 149.435 33.103 Q 158.117 36.834 164.629 43.346 L 164.629 43.346 L 164.629 43.346 Q 171.141 49.858 174.872 58.54 L 174.872 58.54 L 174.872 58.54 Q 178.602 67.223 178.602 77.126 L 178.602 77.126 L 178.602 79.704 L 178.602 79.704 Q 178.602 89.065 176.432 96.119 L 176.432 96.119 L 176.432 96.119 Q 174.261 103.174 170.666 108.6 L 170.666 108.6 L 170.666 108.6 Q 167.071 114.027 162.526 118.232 L 162.526 118.232 L 162.526 118.232 Q 157.982 122.438 153.166 126.101 L 153.166 126.101 L 153.166 126.101 Q 148.35 129.764 143.805 133.291 L 143.805 133.291 L 143.805 133.291 Q 139.26 136.818 135.665 141.024 L 135.665 141.024 L 135.665 141.024 Q 132.07 145.229 129.899 150.384 L 129.899 150.384 L 129.899 150.384 Q 127.729 155.54 127.729 162.459 L 127.729 162.459 Z " fill-rule="evenodd" fill="rgb(255,194,0)"/></g></svg>