<?xml version="1.0" standalone="no"?><!-- Generator: Gravit.io --><svg xmlns="http://www.w3.org/2000/svg" xmlns:xlink="http://www.w3.org/1999/xlink" style="isolation:isolate" viewBox="0 0 128 128" width="128" height="128"><g id="null"><path d=" M 64.357 101.495 C 69.007 100.632 72.672 98.092 75.359 95.575 C 75.172 97.261 74.895 98.694 74.659 99.973 C 74.317 101.551 74.107 103.156 74.032 104.769 C 73.991 105.616 74.048 106.406 74.17 107.122 C 69.496 106.031 67.476 106.3 61.8 106.634 C 57.859 106.87 56.865 106.74 55.742 107.041 C 55.856 106.406 55.896 105.632 55.88 104.622 C 55.876 103.607 55.68 102.601 55.302 101.658 C 57.093 102.131 59.952 102.318 64.357 101.495 Z  M 46.678 86.064 C 44.878 84.476 43.69 83.58 42.549 82.636 L 42.338 82.464 C 43.348 83.67 44.528 85.266 45.921 87.448 C 46.719 88.71 47.24 89.557 47.802 90.469 C 48.478 91.577 49.26 92.823 50.668 95.062 L 51.344 96.088 C 52.142 95.934 52.908 95.64 53.266 95.136 C 54.121 93.857 53.616 92.416 53.054 91.504 C 52.525 90.608 48.576 87.717 46.678 86.064 Z  M 33.95 80.372 C 33.348 77.35 33.747 76.333 35.522 71.911 C 37.216 67.684 39.227 62.798 42.354 58.1 C 46.141 52.391 50.253 49.37 49.944 44.948 C 48.763 28.523 47.794 20.315 55.098 16.528 C 62.036 12.92 67.851 15.062 70.147 16.292 C 71.124 16.821 73.144 17.855 74.65 19.655 C 76.149 21.422 77.501 24.093 78.25 27.473 C 79.813 34.248 77.606 32.017 79.374 39.769 C 81.124 47.521 84.675 51.316 89.007 57.448 C 93.323 63.588 97.851 73.702 96.409 79.549 C 96.195 80.382 95.928 81.201 95.611 82 C 95.129 81.935 94.638 81.954 94.162 82.057 C 93.923 82.065 93.69 82.135 93.486 82.261 C 93.388 81.593 92.281 80.95 91.426 80.592 C 90.546 80.233 89.569 80.087 89.569 80.087 C 89.569 80.087 88.47 79.924 87.501 79.875 C 87.145 79.865 86.789 79.87 86.434 79.891 C 86.515 79.745 86.597 79.598 86.703 79.37 C 87.264 78.083 88.641 73.938 88.136 70.437 C 87.723 67.333 86.305 64.449 84.097 62.228 C 83.364 61.463 80.929 59.948 80.758 60.249 C 80.636 60.461 82.843 60.966 85.131 64.02 C 87.183 66.764 88.234 70.412 87.818 73.352 C 87.533 75.355 87.37 76.121 86.979 77.456 C 86.716 78.291 86.412 79.111 86.067 79.916 C 85.469 79.965 84.886 80.128 84.349 80.396 C 83.69 80.82 83.168 81.52 83.535 81.447 C 83.926 81.357 84.333 80.746 85.123 80.478 C 85.937 80.225 87.321 80.233 87.843 80.266 C 88.396 80.298 89.74 80.437 90.677 80.754 C 91.498 80.975 92.228 81.452 92.761 82.114 C 92.859 82.278 92.976 82.428 93.111 82.562 C 92.685 83.055 92.306 83.587 91.979 84.15 C 91.743 84.5 91.466 84.932 91.352 85.087 C 90.699 85.753 89.969 86.341 89.178 86.837 C 88.667 87.215 88.036 87.395 87.403 87.342 C 87.191 87.342 86.963 87.342 86.727 87.326 C 85.587 87.228 85.269 86.96 84.854 86.593 L 84.659 86.43 L 84.536 86.324 C 84.121 85.958 84.121 85.958 84.137 85.665 L 84.186 85.258 C 84.333 83.979 84.455 82.758 83.592 81.886 C 83.166 81.462 82.62 81.178 82.028 81.072 C 82.159 79.81 82.264 78.401 82.264 77.546 C 82.264 73.588 81.8 69.557 80.896 66.593 C 80.066 63.833 78.73 61.886 77.59 59.386 C 75.318 54.394 75.432 52.155 73.396 48.971 C 72.289 47.22 71.971 45.754 71.605 44.704 C 72.256 43.833 72.59 42.66 72.696 41.072 C 72.794 39.679 72.02 38.808 70.905 38.206 C 71.277 37.703 71.543 37.129 71.686 36.52 C 72.244 34.55 71.955 32.437 70.888 30.689 C 69.683 28.564 69.007 28.23 67.273 28.091 C 64.61 27.855 63.372 29.72 62.777 31.048 C 62.15 32.489 62.281 32.285 62.321 34.109 C 62.321 34.354 62.338 34.582 62.362 34.802 C 61.3 34.585 60.207 34.563 59.137 34.736 C 58.865 34.749 58.593 34.776 58.323 34.818 C 58.348 34.492 58.348 34.109 58.348 33.678 C 58.348 31.78 57.769 31.137 56.874 29.899 C 56.01 28.719 54.642 28.662 53.795 28.816 C 53.299 28.898 52.663 29.525 52.224 30.453 C 51.895 31.161 51.715 31.929 51.694 32.709 C 51.637 34.956 51.817 35.811 52.33 37.318 C 52.45 37.675 52.617 38.014 52.826 38.328 L 52.672 38.442 C 51.466 39.427 50.424 40.29 50.481 42.147 C 50.522 43.613 51.352 44.761 52.378 45.754 C 52.191 47.147 52.142 47.481 52.142 49.419 C 52.142 50.991 51.426 51.105 49.854 53.482 C 49.441 54.145 49.066 54.83 48.73 55.535 C 48.567 56.153 48.462 56.65 48.616 57.171 C 49.08 58.751 51.385 59.052 51.271 59.574 C 51.157 60.095 49.341 60.347 48.062 61.064 C 47.395 61.455 46.996 61.992 46.23 62.692 C 45.123 65.233 43.111 68.092 42.566 70.486 C 41.931 73.336 41.133 75.16 41.255 78.971 C 41.295 80.03 41.32 80.673 41.393 81.121 C 40.811 80.518 40.303 79.848 39.878 79.126 C 39.268 77.904 38.966 76.137 39.162 74.012 C 39.374 71.569 39.846 70.201 41.165 67.033 C 42.582 63.621 43.624 62.855 43.356 62.53 C 43.119 62.269 41.808 64.728 41.352 65.697 C 40.139 68.279 39.105 70.714 38.763 73.8 C 38.51 76.048 38.779 77.66 39.406 78.995 C 39.561 79.346 39.927 79.867 40.359 80.421 C 38.844 79.109 37.973 79.077 37.525 79.077 C 36.21 79.026 34.928 79.491 33.95 80.372 Z  M 75.994 46.471 C 77.061 47.538 77.729 47.538 78.168 47.065 C 79.007 46.178 78.323 45.331 77.818 44.753 C 77.313 44.175 76.629 44.362 76.027 43.784 C 75.457 43.189 75.025 43.238 74.773 43.515 C 74.618 43.694 74.919 45.363 75.994 46.471 Z  M 69.699 27.065 C 69.113 26.821 68.339 26.797 68.364 26.927 C 68.364 27.082 69.194 27.236 69.545 27.359 C 69.895 27.481 70.701 28.181 71.01 28.539 C 71.32 28.898 71.898 30.078 72.093 30.021 C 72.281 29.973 71.857 29.175 71.572 28.743 C 71.238 28.32 70.302 27.318 69.699 27.065 Z  M 68.299 22.399 C 68.869 22.652 70.888 21.658 70.815 21.129 C 70.709 20.347 69.878 19.386 69.528 19.346 C 69.178 19.313 68.405 19.313 68.209 19.631 C 67.981 19.899 67.704 22.163 68.299 22.399 Z  M 55.359 27.53 C 55.375 27.798 56.263 27.725 57.167 28.507 C 58.103 29.321 58.201 30.038 58.494 30.005 C 58.787 29.989 58.356 29.093 57.387 28.238 C 56.654 27.595 55.359 27.261 55.359 27.53 Z  M 102.558 94.435 C 100.473 93.088 98.668 91.352 97.24 89.321 C 96.393 87.945 97.615 85.738 96.426 84.028 C 95.717 83.002 94.471 83.425 94.268 83.425 C 94.064 83.425 92.997 85.323 92.549 85.877 C 91.791 86.684 90.932 87.39 89.992 87.978 C 89.121 88.531 88.453 88.841 86.572 88.702 C 84.724 88.548 84.17 87.921 83.6 87.432 C 83.006 86.911 82.419 86.52 82.533 85.282 C 82.672 84.052 82.818 83.181 82.435 82.798 C 82.036 82.391 81.483 82.318 80.269 82.318 C 79.056 82.318 78.828 82.359 77.802 83.01 C 77.248 83.352 77.199 85.616 77.199 88.271 C 77.199 90.38 77.216 92.75 77.028 94.663 C 76.58 99.118 75.693 101.74 75.611 104.614 C 75.514 107.497 76.483 109.427 77.362 110.184 C 78.217 110.974 79.504 111.569 82.313 111.569 C 85.139 111.569 86.906 110.934 88.771 109.077 C 89.976 107.864 91.247 106.748 94.935 104.223 C 97.851 102.236 102.256 100.046 103.144 99.175 C 103.567 98.743 104.341 98.32 104.414 96.756 C 104.439 95.364 103.339 94.916 102.558 94.435 Z  M 49.333 95.697 C 46.735 91.569 46.312 90.811 44.585 88.092 C 42.859 85.388 39.439 80.494 37.492 80.437 C 35.929 80.396 35.049 81.243 34.089 82.22 C 33.111 83.197 31.931 85.722 30.22 86.951 C 28.494 88.181 24.17 88.067 23.071 89.517 C 21.996 90.95 23.119 93.043 23.087 96.919 C 23.087 98.564 22.81 99.818 22.623 100.828 C 22.354 102.098 22.175 102.986 22.712 103.898 C 23.69 105.518 25.237 105.917 34.137 107.782 C 38.901 108.767 43.405 111.324 46.426 111.569 C 49.447 111.789 50.09 110.803 51.931 109.166 C 53.755 107.53 54.341 108.043 54.284 104.46 C 54.227 100.877 51.931 99.81 49.333 95.697 Z  M 54.154 46.072 C 52.745 44.94 51.45 43.719 51.409 42.131 C 51.344 40.445 52.444 39.883 54.007 38.548 C 54.198 38.362 54.399 38.188 54.61 38.026 C 54.194 37.929 54.064 37.538 53.543 37.008 C 53.067 36.352 52.779 35.577 52.712 34.769 C 52.712 34.199 52.59 33.377 53.079 32.66 C 53.356 32.16 53.892 31.861 54.463 31.886 C 55.033 31.886 55.75 32.261 56.1 32.782 C 56.505 33.387 56.72 34.098 56.719 34.826 C 56.719 35.42 56.678 36.015 56.572 36.544 C 56.818 36.388 57.068 36.239 57.321 36.096 C 58.274 35.632 58.885 35.73 59.87 35.608 C 61.255 35.437 63.152 35.771 64.023 36.422 C 64.276 36.618 64.52 36.772 64.74 36.919 C 64.561 36.2 64.479 35.461 64.496 34.72 C 64.496 33.67 64.797 32.937 65.326 32.334 C 65.734 31.911 66.45 31.813 67.061 31.813 C 68.478 31.813 69.308 33.083 69.61 34.72 C 69.727 35.487 69.543 36.269 69.097 36.903 C 68.66 37.455 68.038 37.831 67.346 37.961 C 69.577 38.58 71.89 39.142 71.751 41.039 C 71.58 43.71 70.807 44.916 68.576 45.616 C 66.8 46.17 63.616 49.256 61.141 49.256 C 60.049 49.256 58.502 49.313 57.615 48.995 C 56.76 48.67 55.554 47.22 54.154 46.072 Z  M 67.688 33.482 C 67.883 33.719 67.997 34.313 68.282 34.077 C 68.584 33.857 68.584 33.507 68.217 33.1 C 67.851 32.692 67.517 32.538 67.362 32.692 C 67.077 32.969 67.346 33.157 67.688 33.482 Z  M 60.978 36.894 C 61.19 37.318 61.727 37.375 62.085 37.595 C 62.435 37.782 62.615 37.815 62.753 37.741 C 63.054 37.595 62.818 37.033 62.517 36.846 C 62.24 36.666 60.864 36.626 60.978 36.894 Z  M 56.817 37.53 C 56.76 37.692 57.224 38.018 57.452 37.782 C 57.712 37.587 58.022 37.375 58.144 37.302 C 58.616 37 58.421 36.789 57.672 36.894 C 56.89 37.049 56.89 37.359 56.817 37.53 Z  M 54.992 33.678 C 55.302 34.044 55.286 34.606 55.603 34.484 C 55.725 34.443 55.693 33.507 55.457 33.1 C 55.22 32.709 54.691 32.66 54.585 32.863 C 54.479 33.1 54.699 33.311 54.992 33.678 Z  M 53.046 44.191 C 53.714 44.728 54.528 45.249 55.229 45.608 C 55.652 45.811 56.703 46.056 56.703 46.056 C 57.696 46.178 58.641 46.153 59.243 46.153 C 60.668 46.153 62.444 45.559 64.292 44.671 C 66.124 43.759 66.548 43.401 67.859 42.66 C 69.113 41.96 70.693 41.048 70.115 40.779 C 69.577 40.51 69.023 40.893 67.224 41.984 C 65.727 42.932 64.158 43.762 62.533 44.468 C 61.695 44.874 60.8 45.151 59.878 45.29 C 59.113 45.339 58.136 45.331 57.541 45.331 C 56.865 45.331 56.092 45.054 55.375 44.802 C 55.004 44.664 54.655 44.472 54.341 44.232 C 53.73 43.857 52.655 42.815 52.297 42.578 C 52.183 42.546 51.865 42.57 51.931 42.79 C 52.11 43.385 52.517 43.751 53.046 44.191 Z " fill="rgb(69,90,100)"/></g></svg>