<?xml version="1.0" standalone="no"?><!-- Generator: Gravit.io --><svg xmlns="http://www.w3.org/2000/svg" xmlns:xlink="http://www.w3.org/1999/xlink" style="isolation:isolate" viewBox="0 0 128 128" width="128" height="128"><g id="null"><path d=" M 102.062 80.428 C 99.944 85.112 98.939 87.204 96.215 91.34 C 92.42 97.112 87.071 104.329 80.436 104.379 C 74.539 104.429 73.028 100.534 65.03 100.6 C 57.033 100.642 55.355 104.454 49.467 104.395 C 42.831 104.337 37.766 97.843 33.962 92.063 C 23.357 75.877 22.227 56.917 28.788 46.826 C 33.439 39.667 40.797 35.465 47.69 35.465 C 54.707 35.465 59.126 39.327 64.939 39.327 C 70.586 39.327 74.016 35.457 82.147 35.457 C 88.284 35.457 94.787 38.804 99.429 44.584 C 84.239 52.922 86.714 74.614 102.062 80.428 Z  M 75.984 29.004 C 78.924 25.209 81.183 19.86 80.378 14.396 C 75.544 14.72 69.905 17.801 66.608 21.787 C 63.627 25.416 61.16 30.823 62.115 36.038 C 67.364 36.213 72.829 33.073 75.984 29.004 Z " fill="rgb(69,90,100)"/></g></svg>